<?xml version="1.0" encoding="UTF-8" standalone="no"?>
<!-- Created with Inkscape (http://www.inkscape.org/) -->

<svg
   width="210mm"
   height="297mm"
   viewBox="0 0 210 297"
   version="1.1"
   id="svg5"
   xml:space="preserve"
   inkscape:version="1.2.2 (732a01da63, 2022-12-09)"
   sodipodi:docname="aub_rob2.svg"
   xmlns:inkscape="http://www.inkscape.org/namespaces/inkscape"
   xmlns:sodipodi="http://sodipodi.sourceforge.net/DTD/sodipodi-0.dtd"
   xmlns="http://www.w3.org/2000/svg"
   xmlns:svg="http://www.w3.org/2000/svg"><sodipodi:namedview
     id="namedview7"
     pagecolor="#505050"
     bordercolor="#eeeeee"
     borderopacity="1"
     inkscape:showpageshadow="0"
     inkscape:pageopacity="0"
     inkscape:pagecheckerboard="0"
     inkscape:deskcolor="#505050"
     inkscape:document-units="mm"
     showgrid="false"
     inkscape:zoom="0.74564394"
     inkscape:cx="122.04216"
     inkscape:cy="561.9304"
     inkscape:window-width="1920"
     inkscape:window-height="1017"
     inkscape:window-x="-8"
     inkscape:window-y="-8"
     inkscape:window-maximized="1"
     inkscape:current-layer="layer1" /><defs
     id="defs2"><filter
       style="color-interpolation-filters:sRGB;"
       inkscape:label="Invert"
       id="filter167"
       x="0"
       y="0"
       width="1"
       height="1"><feColorMatrix
         values="-1 0 0 0 1 0 0 -1 0 1 0 -1 0 0 1 -0.21 -0.72 -0.07 1 0 "
         result="color2"
         id="feColorMatrix165" /></filter></defs><g
     inkscape:label="Layer 1"
     inkscape:groupmode="layer"
     id="layer1"><path
       style="fill:#000000;stroke-width:0.768591;filter:url(#filter167)"
       d="m 42.796867,283.48154 c -0.65846,-1.06167 -1.63998,-47.06636 -1.51208,-70.87211 0.14309,-26.63132 0.002,-30.73148 -1.12395,-32.70484 -0.70815,-1.24092 -1.28754,-3.39875 -1.28754,-4.79519 0,-2.72733 -0.23281,-2.60834 7.44543,-3.80518 l 3.0047,-0.46836 -0.32414,47.93331 c -0.31528,46.62209 -0.28151,47.96825 1.23416,49.21122 1.83186,1.50226 1.97307,4.22982 0.56677,10.94757 l -0.99154,4.73648 h -3.44918 c -1.89705,0 -3.50024,-0.0824 -3.56263,-0.18279 z m 3.34306,-29.49197 c 0,-9.32239 -0.15646,-10.56568 -1.32958,-10.56568 -1.16415,0 -1.26461,0.69649 -0.80741,5.59775 0.28719,3.07875 0.52218,8.03678 0.52218,11.01786 0,3.42712 0.29689,5.25387 0.8074,4.96796 0.47796,-0.26767 0.80741,-4.7633 0.80741,-11.01789 z m -2.63295,-29.40558 c -0.16024,-2.31384 -0.29134,-0.42071 -0.29134,4.20696 0,4.62766 0.1311,6.5208 0.29134,4.20698 0.16024,-2.31384 0.16024,-6.10012 0,-8.41394 z m 2.34377,-15.36457 c -0.27525,-1.50902 -0.50445,-5.62453 -0.50934,-9.14558 -0.008,-5.40479 -0.21218,-6.40192 -1.31416,-6.40192 -0.9596,0 -1.17634,0.43597 -0.81843,1.64622 0.26778,0.90541 0.49181,5.02092 0.49787,9.14558 0.01,6.44166 0.19674,7.49938 1.32778,7.49938 1.07227,0 1.22383,-0.50942 0.81628,-2.74368 z m 0.28917,-26.93119 c 0,-0.57988 -0.36333,-1.05429 -0.8074,-1.05429 -0.44407,0 -0.8074,0.67791 -0.8074,1.50647 0,0.82856 0.36333,1.303 0.8074,1.05429 0.44407,-0.2486 0.8074,-0.92662 0.8074,-1.50647 z m 12.11106,98.49282 c 0,-1.58588 0.41803,-3.11754 0.92896,-3.40367 0.68346,-0.38277 0.77877,-4.88975 0.36063,-17.05396 -0.31258,-9.09354 -0.63979,-23.67751 -0.72711,-32.40879 -0.13888,-13.88416 -0.3214,-15.9137 -1.45546,-16.1831 -2.05651,-0.48846 -2.23461,-5.15343 -2.28864,-59.94636 l -0.0503,-51.03235 h 5.65298 5.65299 v 13.16963 c 0,8.29199 0.29903,13.16964 0.80741,13.16964 0.50917,0 0.8074,-4.99957 0.8074,-13.53545 v -13.53546 h -6.45923 -6.45923 V 84.290786 c 0,-14.939526 0.0768,-15.730396 1.52656,-15.730396 1.36947,0 1.58627,0.828201 2.10676,8.048093 l 0.58019,8.048121 h 6.87561 6.87561 l -0.50463,2.286388 c -0.27754,1.25751 -0.50462,2.561173 -0.50462,2.897016 0,0.335815 -2.99749,0.721516 -6.66108,0.85707 l -6.66108,0.246386 6.76374,0.148772 6.76374,0.149049 -0.5898,17.742415 c -0.3427,10.30926 -0.94002,18.13159 -1.42575,18.67132 -0.55195,0.61331 -0.86621,14.95526 -0.925,42.2149 -0.0824,38.20132 -0.19161,41.3103 -1.46159,41.61124 -1.1837,0.28051 -1.25584,0.70825 -0.52429,3.10912 0.78019,2.56048 0.64375,6.22265 -0.59881,16.07224 -0.36066,2.85885 -0.17599,3.91956 0.81172,4.66237 1.83896,1.38299 1.75705,9.34982 -0.12109,11.77721 -1.20894,1.56249 -1.44161,4.17681 -1.70745,19.18561 l -0.30777,17.37659 h -3.54068 -3.54068 z m 4.84442,-15.04195 c 0,-7.07258 -0.30385,-11.34051 -0.80741,-11.34051 -0.50354,0 -0.8074,4.26793 -0.8074,11.34051 0,7.07259 0.30385,11.34052 0.8074,11.34052 0.50355,0 0.80741,-4.26793 0.80741,-11.34052 z m -0.64844,-34.34296 c -0.45039,-3.49592 -0.96637,-3.30124 -0.96637,0.36458 0,1.63337 0.29296,2.80571 0.651,2.60517 0.35805,-0.20049 0.49997,-1.53692 0.31537,-2.96975 z m 1.25399,-25.07861 c -1.22119,-0.16757 -3.21952,-0.16757 -4.44071,0 -1.2212,0.16758 -0.22204,0.30479 2.22035,0.30479 2.4424,0 3.44156,-0.13716 2.22036,-0.30479 z m 0.80059,-19.77915 c -0.15536,-2.71625 -0.28246,-0.49388 -0.28246,4.9386 0,5.4325 0.1271,7.65487 0.28246,4.93862 0.15535,-2.71623 0.15535,-7.161 0,-9.87722 z m -4.63575,-18.06506 c 0,-4.30355 -0.35255,-7.83658 -0.80741,-8.09132 -0.51967,-0.29104 -0.8074,2.43124 -0.8074,7.63911 0,4.90644 0.31781,8.09129 0.8074,8.09129 0.48672,0 0.80741,-3.03412 0.80741,-7.63908 z m 5.67747,-6.2622 c -0.22219,-1.50508 -0.60303,0.60626 -0.92379,5.12152 -0.30015,4.22526 -0.3117,8.01154 -0.0256,8.41394 0.66831,0.94017 1.44719,-10.16389 0.94944,-13.53546 z m 10.6363,49.93487 0.23799,-71.51844 2.2346,-3.2924 c 1.22903,-1.81084 3.66587,-5.10324 5.41518,-7.31648 3.44756,-4.36184 4.86498,-8.74224 4.86498,-15.03476 0,-2.61405 0.3338,-3.98803 0.96888,-3.98803 0.75358,0 0.75358,-0.19523 0,-0.87797 -0.54724,-0.4959 -0.96888,-2.87144 -0.96888,-5.45866 0,-8.474422 -1.68455,-19.521764 -3.12194,-20.473794 -1.11023,-0.73537 -1.36358,-2.849813 -1.60204,-13.370811 L 83.925077,58.31733 h 2.97147 c 2.88317,0 2.95563,0.06526 2.43819,2.200193 -0.29329,1.210113 -0.57738,5.572561 -0.63128,9.694319 -0.0826,6.318356 0.16893,7.953272 1.60339,10.420702 2.75597,4.740571 5.67871,5.854674 15.332643,5.844553 9.10641,-0.0083 11.54865,-0.914643 13.97416,-5.178702 1.3229,-2.325682 1.74252,-17.235066 0.59018,-20.969049 -0.5297,-1.716381 -0.3814,-2.012016 1.00925,-2.012016 1.84477,0 1.71438,-1.703771 1.98765,25.973456 0.0982,9.951022 -0.15136,15.726224 -0.70843,16.390994 -0.53308,0.63613 -0.86014,5.92195 -0.86014,13.90127 0,14.35683 0.20159,15.05539 6.0094,20.82373 1.67559,1.6642 3.41436,3.68432 3.86394,4.48913 1.39263,2.49304 1.86389,10.85297 1.93394,34.30784 0.0398,13.34047 0.35897,22.18436 0.77883,21.58355 0.39122,-0.55986 0.71689,-3.19431 0.72369,-5.8544 0.0201,-7.82983 0.84809,-11.76925 2.55914,-12.17472 1.32859,-0.31483 1.49024,-1.18116 1.49024,-7.98643 0,-5.51742 -0.35269,-8.25131 -1.27234,-9.86286 -0.97254,-1.70421 -1.46822,-6.39357 -2.10361,-19.90104 -1.48104,-31.48432 -1.62764,-38.01068 -1.05847,-47.120232 l 0.56,-8.962651 h 6.88958 6.88957 l -0.38825,-7.306363 c -0.21355,-4.018474 -0.22658,-7.452812 -0.029,-7.631863 0.19759,-0.17919 0.86872,-0.148496 1.49141,0.06802 0.91907,0.319611 1.13217,3.148187 1.13217,15.02832 v 14.634627 l -6.05553,-0.2771 -6.05552,-0.27708 v 13.732582 c -3e-5,8.6673 0.29777,13.73257 0.80737,13.73257 0.50837,0 0.80741,-4.87762 0.80741,-13.16961 V 99.289438 h 5.15406 5.15407 l 0.51564,4.572772 c 0.28358,2.51505 0.45057,24.65649 0.37103,49.20323 -0.11584,35.75496 -0.35904,44.951 -1.22288,46.24244 -2.07851,3.1074 -10.24684,2.82604 -12.41387,-0.42756 -0.51553,-0.77403 -0.60453,13.71014 -0.25686,41.79978 0.52813,42.66807 0.52016,42.98423 -1.08401,42.98423 -1.57867,0 -1.62752,-0.63046 -2.11201,-27.25384 -0.49789,-27.35958 -1.64067,-47.82413 -3.01316,-53.95893 l -0.73658,-3.29239 0.38235,3.58261 c 0.99572,9.32991 2.06477,36.6979 2.2536,57.69277 l 0.20894,23.22978 h -3.86679 -3.86678 v -5.12152 -5.12152 h 3.22961 c 1.83969,0 3.22961,-0.3516 3.22961,-0.817 0,-0.49017 -0.72666,-0.64049 -1.81665,-0.3758 -0.99916,0.24252 -4.17832,0.50317 -7.06478,0.57897 -3.99614,0.1048 -4.42952,0.20463 -1.81666,0.41789 l 3.43146,0.28006 v 5.07946 5.07946 l -3.83516,-1.4e-4 -3.83517,-1.7e-4 0.0226,-40.05749 c 0.0125,-22.03163 -0.19261,-52.73327 -0.45554,-68.22588 -0.35359,-20.83637 -0.51705,-10.40967 -0.62801,40.05765 -0.14592,66.37382 -0.19145,68.22603 -1.67645,68.22603 -1.48313,0 -1.53467,-1.81466 -1.81665,-63.95809 -0.15963,-35.17697 -0.47188,-64.07145 -0.69392,-64.20996 -0.22203,-0.13854 -3.43437,-0.13992 -7.13853,-0.003 l -6.734823,0.2486 0.48102,37.43907 c 0.26454,20.59148 0.69253,49.37404 0.95104,63.96124 l 0.470043,26.52195 h -5.318023 -5.31803 v -6.219 -6.21897 l -3.83516,0.12776 -3.83517,0.12775 3.43147,0.2801 3.43146,0.28006 v 5.8111 5.81109 h -4.14809 -4.14809 l 0.65757,-21.03483 c 0.83273,-26.6382 0.97237,-117.10519 0.18248,-118.23041 -0.32625,-0.46479 -0.5991,11.6661 -0.60632,26.95751 -0.007,15.2914 -0.25395,46.81624 -0.54833,70.05517 l -0.5352,42.25256 h -1.9224 -1.92239 z m 17.81439,59.3322 c -0.54664,-0.20048 -1.63663,-0.21265 -2.42221,-0.0276 -0.78558,0.18555 -0.33833,0.34947 0.99389,0.3644 1.33221,0.0138 1.97496,-0.13688 1.42832,-0.33728 z m 1.9674,-28.23723 c -0.19243,-0.9054 -0.3499,-0.16453 -0.3499,1.64623 0,1.81082 0.15746,2.55161 0.3499,1.6462 0.19243,-0.90541 0.19243,-2.38699 0,-3.29243 z m -1.00536,-9.51139 c -0.32676,-2.51502 -0.86973,-23.83338 -1.20661,-47.37411 l -0.6125,-42.80131 0.25948,45.72789 c 0.14272,25.15037 0.51073,46.4687 0.81779,47.37411 1.0172,2.9993 1.34414,1.70946 0.74183,-2.92658 z m -7.74844,-3.65824 c -0.12023,-7.40116 -0.47498,-6.81716 -0.88883,1.4633 -0.1458,2.91745 0.0192,5.30444 0.36684,5.30444 0.34757,0 0.58246,-3.04548 0.52199,-6.76774 z m 36.192283,3.29242 c -0.20309,-0.70421 -0.36925,-0.12803 -0.36925,1.28038 0,1.40841 0.16616,1.98458 0.36925,1.28038 0.20308,-0.70421 0.20308,-1.85655 0,-2.56076 z m 6.30636,-9.02352 c 1.39769,-0.49158 1.31627,-0.57487 -0.60555,-0.61936 l -2.22036,-0.0514 0.15041,6.76774 0.15042,6.76772 0.45512,-6.14835 c 0.38917,-5.25721 0.68918,-6.23067 2.06994,-6.71631 z m -8.27589,-21.64145 c -0.55509,-0.20297 -1.46341,-0.20297 -2.0185,0 -0.55509,0.20297 -0.10092,0.36903 1.00925,0.36903 1.11018,0 1.56434,-0.16592 1.00925,-0.36903 z m 8.56479,-31.04785 c -0.52013,-12.63641 -1.17008,-23.21374 -1.44433,-23.5052 -0.59675,-0.63422 -0.30596,10.20056 0.77083,28.72192 0.43357,7.45746 0.7883,14.67331 0.7883,16.03524 0,1.36193 0.18694,2.3068 0.41545,2.09976 0.22851,-0.20712 -0.0101,-10.71534 -0.53025,-23.35172 z m 18.68508,-3.22081 c 0,-5.12151 -0.31593,-8.41394 -0.8074,-8.41394 -0.49147,0 -0.80741,3.29243 -0.80741,8.41394 0,5.12152 0.31594,8.41394 0.80741,8.41394 0.49147,0 0.8074,-3.29242 0.8074,-8.41394 z m -4.84442,0.0431 c 0,-4.62122 -0.34019,-7.82963 -0.86112,-8.12137 -0.47361,-0.26519 -1.01885,-0.33936 -1.21162,-0.16453 -0.644,0.58358 0.69317,15.92512 1.38804,15.92512 0.37658,0 0.6847,-3.43757 0.6847,-7.63908 z m -34.95012,-14.3467 c 4.53066,-1.4312 5.5729,-6.49501 2.1054,-10.22924 -1.92313,-2.07105 -2.51477,-2.28708 -5.32748,-1.9452 -5.866983,0.71308 -8.552943,4.89197 -5.915663,9.20373 1.055843,1.72622 4.089653,3.66244 5.817563,3.71285 0.48882,0.0138 1.9829,-0.31972 3.32018,-0.74214 z m -6.28957,-2.83389 c -2.924073,-2.64969 -2.993673,-4.61998 -0.23271,-6.588 2.68551,-1.91421 5.48591,-1.93387 7.56144,-0.0531 2.1822,1.97745 2.03342,4.80871 -0.367,6.9839 -2.58145,2.33924 -4.08362,2.26529 -6.96174,-0.34281 z m 22.48202,-3.50565 c -1.21324,-0.16702 -3.39323,-0.17034 -4.84442,-0.008 -1.45119,0.16288 -0.45853,0.29943 2.2059,0.30355 2.66443,0.006 3.85177,-0.12914 2.63852,-0.29608 z m -1.22557,-9.47315 c -0.55509,-0.20297 -1.46341,-0.20297 -2.0185,0 -0.55509,0.20297 -0.10092,0.36902 1.00925,0.36902 1.11018,0 1.56434,-0.16619 1.00925,-0.36902 z m -4.4313,-0.74981 c -0.77195,-0.18306 -2.22527,-0.1897 -3.22961,-0.0138 -1.00434,0.17504 -0.37275,0.32483 1.40354,0.33293 1.77629,0.008 2.59802,-0.13494 1.82607,-0.31817 z m -6.48547,-0.67099 c -0.26829,-0.24307 -0.96468,-0.26906 -1.54752,-0.0578 -0.64409,0.23367 -0.45277,0.40694 0.48781,0.44203 0.85113,0.0318 1.32801,-0.1413 1.05971,-0.38426 z m -13.289973,-2.2328 c -0.54664,-0.20048 -1.63663,-0.21265 -2.42221,-0.0277 -0.78557,0.18555 -0.33832,0.34947 0.99389,0.36438 1.33222,0.0138 1.974963,-0.13688 1.42832,-0.33728 z m -6.27274,-0.98339 c -1.33221,-0.30716 -3.14887,-0.56464 -4.03702,-0.57216 -1.26536,-0.0111 -1.17799,0.1131 0.4037,0.57216 1.11019,0.32218 2.92684,0.57966 4.03702,0.57217 1.8131,-0.0111 1.77202,-0.0705 -0.4037,-0.57217 z m 18.487873,-8.1472 c 1.10665,-0.45693 2.20079,-1.27637 2.43142,-1.82099 0.67504,-1.59407 0.65959,-31.753272 -0.0162,-31.552458 -0.33799,0.100376 -0.63782,7.043246 -0.66629,15.428458 -0.0513,15.11337 -0.0683,15.258 -1.95786,16.64495 -2.32386,1.70576 -7.3245,1.83844 -10.9258,0.28983 -3.376873,-1.45208 -5.352313,-4.60599 -5.900703,-9.42081 -0.42568,-3.73743 -0.35661,-3.91798 1.67583,-4.38022 1.84201,-0.41894 2.10588,-0.83984 2.01352,-3.21184 l -0.10628,-2.72975 -0.49927,2.56076 c -0.40361,2.07017 -0.90165,2.6031 -2.59962,2.78179 -1.64583,0.1731 -2.04628,0.56901 -1.85047,1.82912 0.13745,0.88444 0.46878,3.17041 0.7363,5.07992 0.51526,3.67779 3.35283,7.51404 6.378293,8.62313 2.46876,0.905 8.96997,0.83479 11.28709,-0.12194 z m -9.97392,-33.084812 c -1.00973,-0.914999 -1.17742,6.03221 -0.23805,9.862702 0.48235,1.96694 0.65399,1.29263 0.84362,-3.314462 0.13775,-3.34632 -0.11746,-6.10593 -0.60555,-6.54824 z m 45.38024,-2.470827 c -1.88731,-0.154026 -4.97563,-0.154026 -6.86293,0 -1.88731,0.154026 -0.34315,0.280095 3.43146,0.280095 3.77461,0 5.31877,-0.126097 3.43147,-0.280095 z M 96.116487,82.995806 c -4.52176,-2.737294 -5.71169,-5.695644 -5.3649,-13.33796 0.34143,-7.524101 1.71915,-10.642339 5.6621,-12.815184 5.640193,-3.108173 15.472013,-2.426946 19.395463,1.34387 4.17216,4.009847 5.21543,14.844787 1.98784,20.644793 -2.42696,4.361203 -5.7399,5.822652 -13.20276,5.824145 -4.618933,7.19e-4 -6.267893,-0.321906 -8.477743,-1.659664 z m -34.99452,-1.788997 c -0.30241,-0.714161 -0.29469,-6.156477 0.0171,-12.093999 l 0.56707,-10.79548 h 9.99972 9.99972 l -0.22185,11.889258 -0.22185,11.889258 -9.79507,0.204631 c -8.7588,0.183061 -9.85324,0.06747 -10.34494,-1.093779 z M 125.26547,70.125593 V 58.521158 l 4.23887,-0.461386 c 5.34646,-0.581926 12.5682,-0.588175 14.93696,-0.01383 1.78726,0.434011 1.81666,0.629239 1.81666,12.062171 v 11.62103 H 135.76172 125.26547 Z M 89.896277,50.452132 c -1.56595,-3.087644 -2.71058,-6.779829 -3.05399,-9.851179 -0.49518,-4.428593 -0.71757,-4.897103 -2.2574,-4.755701 -1.65149,0.151648 -1.71556,-0.162626 -1.93296,-9.481539 -0.2112,-9.053183 -0.12792,-9.666276 1.37165,-10.097565 1.63771,-0.471015 1.9595,-1.077123 2.92318,-5.505843 0.30646,-1.4084196 0.89184,-2.9382126 1.30084,-3.3995416 0.90636,-1.022334 23.943883,-2.121637 28.819453,-1.375203 l 3.354,0.513487 v 4.6913906 c 0,4.516388 0.0753,4.691392 2.01851,4.691392 1.93581,0 2.02594,0.202335 2.19984,4.938615 0.27696,7.543292 -0.18423,13.690773 -1.0478,13.966607 -2.05851,0.657514 -2.96539,2.626453 -3.40668,7.396345 -0.61727,6.67193 -3.35835,12.056696 -5.78573,11.365846 -0.90666,-0.258 -4.40496,-0.646909 -7.774,-0.864204 -5.11361,-0.329788 -6.764473,-0.139094 -9.993333,1.155333 -2.12729,0.852701 -3.94949,1.550381 -4.04934,1.550381 -0.0999,0 -1.30866,-2.222399 -2.68624,-4.938621 z m 9.74949,-2.857771 c -0.54664,-0.2004 -1.63663,-0.212623 -2.42221,-0.0271 -0.78557,0.185495 -0.33832,0.349476 0.99389,0.364386 1.33222,0.01493 1.974963,-0.136854 1.42832,-0.337281 z m 7.453123,-1.715023 c 0.27446,-0.402406 0.11422,-0.731649 -0.35605,-0.731649 -0.47028,0 -0.85506,0.329243 -0.85506,0.731649 0,0.402403 0.16021,0.731645 0.35606,0.731645 0.19582,0 0.5806,-0.329242 0.85505,-0.731645 z m 9.28515,-8.597986 c 4.51911,-2.04573 5.79887,-5.156956 5.45528,-13.262398 -0.2824,-6.661929 -0.36638,-6.92278 -2.88581,-8.962671 -2.23075,-1.806158 -3.25779,-2.101039 -7.31775,-2.101039 -8.73534,0 -12.132463,4.533284 -11.54112,15.401035 0.16103,2.959489 3.64062,8.273192 6.13628,9.370748 2.61712,1.150978 7.0565,0.956108 10.15312,-0.445675 z m -11.01273,-2.713396 c -2.65138,-1.682854 -3.74498,-4.999645 -3.37667,-10.241169 0.26043,-3.706086 0.74704,-5.138785 2.23182,-6.57097 3.80972,-3.674761 11.098,-4.224446 14.24404,-1.074288 1.06948,1.070876 1.59139,2.956052 1.81611,6.559947 0.39093,6.269273 -0.0671,7.988043 -2.78522,10.451101 -1.76539,1.599752 -2.87951,1.943709 -6.29593,1.943709 -2.33267,0 -4.88827,-0.467974 -5.83415,-1.06833 z M 95.135677,33.304163 c -0.25773,-0.583659 -0.44906,-0.41029 -0.4878,0.442036 -0.0351,0.771277 0.15578,1.203404 0.42406,0.960287 0.2683,-0.243124 0.29698,-0.874166 0.0637,-1.402323 z m -7.22038,-12.483718 c -0.15764,-2.515037 -0.28666,-0.45728 -0.28666,4.572788 0,5.030072 0.12899,7.087826 0.28666,4.572792 0.15768,-2.515035 0.15768,-6.630546 0,-9.14558 z m 6.4549,1.09747 c -0.16631,-1.911427 -0.30241,-0.347532 -0.30241,3.475318 0,3.822854 0.1361,5.386748 0.30241,3.475322 0.16632,-1.911427 0.16632,-5.039214 0,-6.95064 z m 2.41629,-8.033332 c -1.67518,-0.158396 -4.2185,-0.155713 -5.65183,0.0058 -1.43333,0.161602 -0.0627,0.291192 3.04577,0.287945 3.10851,-0.0033 4.28123,-0.135498 2.60606,-0.293871 z"
       id="path179"
       inkscape:export-filename="aub2.png"
       inkscape:export-xdpi="175.4722"
       inkscape:export-ydpi="175.4722" /></g></svg>
